<?xml version="1.0" encoding="UTF-8"?>
<svg width="387px" height="151px" viewBox="0 0 387 151" version="1.1" xmlns="http://www.w3.org/2000/svg" xmlns:xlink="http://www.w3.org/1999/xlink">
    <!-- Generator: Sketch 50 (54983) - http://www.bohemiancoding.com/sketch -->
    <title>Group 3</title>
    <desc>Created with Sketch.</desc>
    <defs></defs>
    <g id="Page-1" stroke="none" stroke-width="1" fill="none" fill-rule="evenodd">
        <g id="variations-word" transform="translate(-210.000000, -355.000000)" fill="#FFFFFF">
            <g id="Group-3" transform="translate(210.000000, 355.000000)">
                <path d="M0,55.7803922 C0,29.0613043 11.3387296,11.822261 34.0165289,4.0627451 C41.8843369,1.35423482 51.3718453,0 62.4793388,0 L70,0 L70,112 L0,112 L0,55.7803922 Z" id="4"></path>
                <polygon id="Path" points="88 38 150 38 150 150 88 150"></polygon>
                <path d="M173.46875,118.101562 L187.929688,118.101562 L187.929688,134.15625 L173.46875,118.101562 Z M158.164062,127.523438 L158.023438,127.523438 C158.023438,124.304671 158.898429,121.929695 160.648438,120.398438 C162.398446,118.86718 165.093732,118.101562 168.734375,118.101562 L187.929688,141.398438 C187.929688,144.492203 187.093758,146.703118 185.421875,148.03125 C183.796867,149.328131 181.140643,149.976562 177.453125,149.976562 L158.164062,127.523438 Z M158.09375,133.851562 L172.015625,150 L158.09375,150 L158.09375,133.851562 Z M205.601562,150 C197.867149,150 194,146.468785 194,139.40625 L194,126.234375 L203.914062,119.742188 L207.429688,119.742188 L207.429688,150 L205.601562,150 Z M210.828125,126.09375 L222.054688,126.09375 L222.054688,133.945312 L210.828125,133.945312 L210.828125,126.09375 Z M210.851562,139.992188 L223.859375,139.992188 L223.859375,142.054688 C223.859375,144.710951 223.046883,146.671869 221.421875,147.9375 C219.656241,149.312507 216.804707,150 212.867188,150 L210.851562,150 L210.851562,139.992188 Z M246.78125,126.09375 L259.8125,126.09375 L259.8125,150 L246.78125,150 L246.78125,126.09375 Z M229.953125,126.09375 L242.914062,126.09375 L242.914062,150 L240.804688,150 C235.054659,150 231.625006,148.046895 230.515625,144.140625 C230.140623,142.874994 229.953125,141.414071 229.953125,139.757812 L229.953125,126.09375 Z M283.273438,114.117188 L295.765625,114.117188 L295.765625,150 L283.273438,150 L283.273438,114.117188 Z M265.90625,138.328125 C265.90625,136.609366 266.13281,135.011726 266.585938,133.535156 C267.039065,132.058586 267.742183,130.765631 268.695312,129.65625 C270.757823,127.281238 273.710918,126.09375 277.554688,126.09375 L279.359375,126.09375 L279.359375,150 L278.140625,150 C274.203105,150 271.156261,148.921886 269,146.765625 C266.93749,144.703115 265.90625,141.890643 265.90625,138.328125 Z M309.148438,119.671875 C303.976537,119.671875 301.390625,118.054704 301.390625,114.820312 C301.390625,113.164054 302.007806,111.97266 303.242188,111.246094 C304.476569,110.519528 306.359362,110.15625 308.890625,110.15625 C311.421888,110.15625 313.289056,110.519528 314.492188,111.246094 C315.695319,111.97266 316.296875,113.16796 316.296875,114.832031 C316.296875,116.496102 315.738287,117.718746 314.621094,118.5 C313.503901,119.281254 311.6797,119.671875 309.148438,119.671875 Z M302.703125,126.117188 L315.3125,126.117188 L315.3125,150 L302.703125,150 L302.703125,126.117188 Z M338.75,126.09375 L340.554688,126.09375 C344.398457,126.09375 347.351552,127.281238 349.414062,129.65625 C351.273447,131.812511 352.203125,134.671857 352.203125,138.234375 C352.203125,141.859393 351.171885,144.703115 349.109375,146.765625 C346.953114,148.921886 343.90627,150 339.96875,150 L338.75,150 L338.75,126.09375 Z M321.5,138.328125 C321.5,136.609366 321.72656,135.011726 322.179688,133.535156 C322.632815,132.058586 323.335933,130.765631 324.289062,129.65625 C326.351573,127.281238 329.304668,126.09375 333.148438,126.09375 L334.953125,126.09375 L334.953125,150 L333.734375,150 C329.796855,150 326.750011,148.921886 324.59375,146.765625 C322.53124,144.703115 321.5,141.890643 321.5,138.328125 Z M360.195312,135.09375 C360.148437,134.906249 360.109375,134.703126 360.078125,134.484375 L359.984375,133.828125 C359.921875,133.359373 359.890625,132.808597 359.890625,132.175781 C359.890625,131.542966 360.035155,130.812504 360.324219,129.984375 C360.613283,129.156246 361.085934,128.437503 361.742188,127.828125 C363.148445,126.515618 365.320298,125.859375 368.257812,125.859375 L385.671875,141.164062 C385.828126,141.726565 385.90625,142.472652 385.90625,143.402344 C385.90625,144.332036 385.750002,145.21484 385.4375,146.050781 C385.124998,146.886723 384.625003,147.609372 383.9375,148.21875 C382.468743,149.562507 380.328139,150.234375 377.515625,150.234375 L360.359375,135.09375 L360.195312,135.09375 Z M386.070312,126.09375 C386.539065,126.812504 386.773438,127.796869 386.773438,129.046875 C386.773438,131.359387 385.906259,133.085932 384.171875,134.226562 L374.773438,126.09375 L386.070312,126.09375 Z M359.515625,150 C359.046873,149.281246 358.8125,148.296881 358.8125,147.046875 C358.8125,144.749989 359.671866,143.031256 361.390625,141.890625 L370.8125,150 L359.515625,150 Z" id="Studios"></path>
                <path d="M193.90625,60.0546875 L206.867188,60.0546875 L206.867188,81.7578125 C206.867188,85.2109548 206.078133,87.7499919 204.5,89.375 C202.765616,91.1250088 199.929707,92 195.992188,92 L193.90625,92 L193.90625,60.0546875 Z M159.125,60.0546875 L172.085938,60.0546875 L172.085938,92 L170,92 C164.234346,92 160.796881,90.0468945 159.6875,86.140625 C159.312498,84.8749937 159.125,83.4140708 159.125,81.7578125 L159.125,60.0546875 Z M176.492188,60.078125 L189.523438,60.078125 L189.523438,92.0234375 L176.492188,92.0234375 L176.492188,60.078125 Z M230.960938,68.09375 L243.898438,68.09375 L243.898438,92 L242.421875,92 C238.359355,92 235.437509,91.2890696 233.65625,89.8671875 C231.859366,88.4296803 230.960938,86.0547041 230.960938,82.7421875 L230.960938,68.09375 Z M214.039062,80.328125 C214.039062,78.6093664 214.265623,77.0117261 214.71875,75.5351562 C215.171877,74.0585864 215.874995,72.7656305 216.828125,71.65625 C218.890635,69.2812381 221.843731,68.09375 225.6875,68.09375 L227.492188,68.09375 L227.492188,92 L226.273438,92 C222.335918,92 219.289073,90.9218858 217.132812,88.765625 C215.070302,86.7031147 214.039062,83.8906428 214.039062,80.328125 Z M266.960938,78.03125 C266.960938,74.5312325 267.851554,72.0000078 269.632812,70.4375 C271.460947,68.8749922 274.390605,68.09375 278.421875,68.09375 L279.851562,68.09375 L279.851562,76.953125 C279.851562,84.2187863 277.773458,88.8749898 273.617188,90.921875 C272.164055,91.6406286 270.421885,92 268.390625,92 L266.960938,92 L266.960938,78.03125 Z M261.429688,92 C257.507793,92 254.585947,90.6328262 252.664062,87.8984375 C250.882804,85.3671748 249.992188,81.7187738 249.992188,76.953125 L249.992188,68.09375 L251.421875,68.09375 C255.453145,68.09375 258.382803,68.8749922 260.210938,70.4375 C261.992196,72.0000078 262.882812,74.5312325 262.882812,78.03125 L262.882812,92 L261.429688,92 Z M302.84375,68.09375 L304.390625,68.09375 C310.296905,68.09375 313.898431,70.09373 315.195312,74.09375 C315.61719,75.4218816 315.828125,76.9609287 315.828125,78.7109375 L315.828125,81.2890625 L302.84375,81.2890625 L302.84375,68.09375 Z M285.921875,80.328125 C285.921875,78.6093664 286.148435,77.0117261 286.601562,75.5351562 C287.05469,74.0585864 287.757808,72.7656305 288.710938,71.65625 C290.773448,69.2812381 293.726543,68.09375 297.570312,68.09375 L299.375,68.09375 L299.375,92 L298.15625,92 C294.21873,92 291.171886,90.9218858 289.015625,88.765625 C286.953115,86.7031147 285.921875,83.8906428 285.921875,80.328125 Z M302.84375,85.8828125 L314.5625,85.8828125 L314.5625,86.5390625 C314.5625,87.9921948 314.039068,89.218745 312.992188,90.21875 C311.710931,91.4062559 309.890637,92 307.53125,92 L302.84375,92 L302.84375,85.8828125 Z" id="Wave"></path>
                <path d="M185.84375,0.1015625 L196.34375,0.1015625 L196.34375,13.34375 L193.71875,13.34375 C191.999991,13.34375 190.734379,13.1601581 189.921875,12.7929688 C189.109371,12.4257794 188.472659,12.0117211 188.011719,11.5507812 C187.550779,11.0898414 187.156252,10.4843788 186.828125,9.734375 C186.171872,8.20311734 185.84375,6.07813859 185.84375,3.359375 L185.84375,0.1015625 Z M170.679688,0.1015625 L183.289062,0.1015625 L183.289062,32 L170.679688,32 L170.679688,0.1015625 Z M157.554688,0.1015625 L168.054688,0.1015625 L168.054688,3.359375 C168.054688,7.37502008 167.328132,10.1093677 165.875,11.5625 C164.687494,12.7500059 162.789076,13.34375 160.179688,13.34375 L157.554688,13.34375 L157.554688,0.1015625 Z M201.992188,0.1015625 L214.601562,0.1015625 L214.601562,16.0625 L219.171875,16.0625 L219.171875,0.1015625 L231.78125,0.1015625 L231.78125,31.953125 L219.171875,31.953125 L219.171875,19.6015625 L214.601562,19.6015625 L214.601562,31.953125 L201.992188,31.953125 L201.992188,0.1015625 Z" id="TH"></path>
            </g>
        </g>
    </g>
</svg>